<?xml version="1.0" encoding="UTF-8" standalone="no"?>
<svg xmlns:ffdec="https://www.free-decompiler.com/flash" xmlns:xlink="http://www.w3.org/1999/xlink" ffdec:objectType="shape" height="36.05px" width="18.9px" xmlns="http://www.w3.org/2000/svg">
  <g transform="matrix(1.0, 0.0, 0.0, 1.0, 0.0, 0.0)">
    <path d="M11.55 15.6 L11.55 15.7 11.5 15.65 11.55 15.6 M12.15 22.7 L12.2 22.85 12.1 22.8 12.15 22.7 M11.85 21.7 L11.85 21.75 11.7 21.65 11.85 21.7 M3.8 32.2 L3.85 32.2 3.8 32.25 3.8 32.2" fill="#333333" fill-rule="evenodd" stroke="none"/>
    <path d="M10.7 6.3 L10.65 6.55 10.7 6.8 10.7 7.05 10.75 7.05 10.75 7.25 10.65 7.2 9.45 7.0 9.25 6.9 9.25 6.95 9.2 6.9 8.85 6.6 8.6 5.95 8.55 5.65 8.45 5.4 8.45 5.15 8.4 4.65 8.3 4.4 8.9 4.7 9.1 4.8 9.0 5.05 Q9.0 6.4 10.15 6.4 L10.7 6.3" fill="#2c2c21" fill-rule="evenodd" stroke="none"/>
    <path d="M7.95 3.3 L7.6 3.2 7.6 3.05 7.6 3.0 7.85 2.2 7.75 2.6 7.8 3.0 7.95 3.3 M8.1 1.85 L8.1 1.75 8.55 1.25 8.7 1.2 8.1 1.85" fill="url(#gradient0)" fill-rule="evenodd" stroke="none"/>
    <path d="M11.65 1.35 L12.25 2.7 12.25 3.6 12.45 4.15 14.45 5.8 15.25 6.7 15.45 7.2 Q15.85 7.65 15.85 9.0 L15.25 11.05 15.05 11.6 14.95 11.75 Q14.0 13.9 14.0 14.25 L15.65 15.7 Q17.3 17.25 17.3 17.85 L17.3 17.95 17.35 17.95 Q17.55 17.6 18.05 17.4 18.9 17.1 18.9 17.7 L18.1 19.35 17.3 20.8 17.35 20.9 17.35 21.05 17.3 21.1 17.3 21.2 17.2 21.45 16.85 21.8 16.4 22.15 16.15 22.1 15.8 22.2 14.3 21.6 14.0 21.05 13.95 20.75 14.05 20.25 14.0 20.0 13.75 19.95 13.75 20.05 13.25 21.05 Q12.8 21.8 12.45 21.8 L12.25 21.8 12.5 22.25 12.5 22.35 12.55 22.4 12.55 22.45 12.6 22.55 12.8 23.55 13.4 25.9 14.15 30.45 13.85 33.05 13.8 33.1 Q13.3 33.95 13.3 34.35 L13.35 34.55 13.85 34.55 Q15.75 34.55 15.75 35.25 L15.7 35.6 15.5 36.0 10.2 36.0 10.35 35.6 10.55 34.75 10.6 34.65 10.55 34.65 10.55 34.55 10.7 34.2 10.85 32.75 10.7 30.7 10.65 30.3 10.4 28.05 9.9 27.0 9.2 26.1 7.5 29.8 7.2 30.5 7.15 30.65 6.5 32.05 6.4 32.15 5.35 33.7 5.25 33.75 5.05 34.05 5.0 34.2 7.05 34.5 Q7.45 34.6 7.45 35.05 L7.3 35.45 7.0 35.85 6.85 36.0 1.3 36.0 1.3 35.95 Q1.3 35.65 2.05 34.65 L2.0 34.65 2.15 34.25 3.45 29.65 4.7 25.2 4.8 24.45 5.1 22.6 5.1 22.5 5.1 22.45 5.1 22.4 5.05 22.35 5.05 22.25 5.0 21.95 4.7 21.05 4.55 20.65 4.15 19.75 3.7 18.95 Q3.05 18.5 2.95 18.0 L2.4 16.15 2.15 15.1 2.05 14.8 1.75 13.4 0.7 12.15 0.1 11.5 0.1 11.4 0.0 11.2 0.05 11.0 0.05 10.7 Q0.05 10.25 0.45 9.65 L1.1 8.2 Q1.95 6.25 2.35 5.8 L4.0 3.6 4.45 3.05 Q4.75 2.85 5.3 2.8 L6.0 2.75 6.45 2.55 6.85 2.3 Q8.25 -0.4 9.75 0.05 L10.8 0.25 11.15 0.6 11.1 0.85 11.55 1.25 11.65 1.35 M9.6 1.3 L9.7 1.1 8.75 1.15 8.7 1.2 8.55 1.25 8.1 1.75 8.1 1.85 7.85 2.2 7.6 3.0 7.6 3.05 7.6 3.2 7.95 3.3 8.15 3.4 8.2 3.4 10.75 4.25 10.7 4.1 10.7 4.0 Q10.55 2.45 9.85 1.45 L9.6 1.3 M9.1 4.8 L8.9 4.7 8.3 4.4 8.4 4.65 8.45 5.15 8.45 5.4 8.55 5.65 8.6 5.95 8.85 6.6 9.2 6.9 9.25 6.95 9.25 6.9 9.45 7.0 10.65 7.2 10.75 7.25 10.75 7.05 10.7 7.05 10.7 6.8 10.65 6.55 10.7 6.3 11.0 6.0 11.25 5.35 Q11.1 4.25 10.05 4.25 9.35 4.25 9.1 4.65 L9.1 4.8 M10.05 9.95 L9.05 9.5 8.95 9.45 8.9 11.05 8.8 14.25 9.0 14.45 9.9 14.85 10.05 14.9 10.15 13.8 9.95 10.8 10.05 9.95 M11.05 8.8 L11.25 9.3 11.6 10.7 11.7 13.4 11.7 14.05 12.0 12.35 12.1 10.3 12.25 9.25 11.85 8.75 11.35 8.2 11.15 8.6 11.05 8.8 M13.8 10.7 L13.2 10.05 13.05 10.2 Q12.8 10.5 12.8 11.9 L12.75 12.75 12.6 14.2 12.65 14.35 13.25 13.3 13.65 11.95 14.1 10.95 13.8 10.7 M6.8 9.65 L6.5 9.3 6.25 9.0 5.25 8.95 5.2 8.95 4.9 9.15 3.3 10.5 3.05 11.0 3.8 12.55 3.9 12.7 4.6 13.85 Q5.2 14.5 5.5 14.5 6.7 14.5 7.05 13.55 L7.3 12.9 7.35 12.35 7.25 11.45 6.95 9.75 6.8 9.65 M5.65 15.85 L5.5 15.8 5.1 15.65 4.1 15.4 4.0 16.7 Q4.0 17.55 5.75 19.3 L6.25 19.5 7.4 19.8 Q9.15 20.4 9.65 20.7 L10.35 20.95 10.25 20.6 10.55 19.05 10.0 18.7 10.1 18.6 10.25 18.35 Q10.25 18.1 9.35 17.7 L8.1 17.2 6.55 15.85 Q6.4 15.85 6.3 15.95 6.2 15.75 5.9 15.75 L5.65 15.85 M11.55 15.6 L11.5 15.65 11.55 15.7 11.55 15.6 M11.75 16.05 L13.3 17.4 Q15.0 18.7 15.8 18.7 L16.15 18.55 16.3 18.35 15.9 18.05 14.4 17.0 12.2 15.7 Q11.75 15.7 11.75 16.05 M11.85 21.7 L11.7 21.65 11.85 21.75 11.85 21.7 M12.15 22.7 L12.1 22.8 12.2 22.85 12.15 22.7 M12.65 27.85 L12.9 27.7 12.9 27.4 12.55 25.75 12.2 26.05 12.0 26.2 11.3 26.4 11.05 26.35 11.1 26.4 11.7 27.65 11.9 28.2 12.65 28.0 12.65 27.85 M13.05 29.45 Q12.85 29.35 12.85 29.7 L12.3 33.85 12.35 34.0 12.6 34.15 Q12.9 34.15 13.3 32.6 L13.6 30.75 13.45 29.9 13.05 29.45 M8.05 25.55 L7.55 25.8 7.1 25.75 6.35 25.5 5.9 25.2 5.2 27.5 6.2 27.8 6.6 27.95 6.8 28.0 7.2 28.15 7.3 27.9 7.65 26.95 8.15 25.45 8.05 25.55 M6.15 24.3 L6.1 24.45 6.2 24.4 6.15 24.3 M6.45 29.65 Q6.15 29.25 5.95 29.9 L5.45 31.2 4.2 33.6 Q4.2 33.95 4.45 33.95 5.05 33.95 6.7 30.35 L6.45 29.65 M3.8 32.2 L3.8 32.25 3.85 32.2 3.8 32.2" fill="#090909" fill-rule="evenodd" stroke="none"/>
    <path d="M8.05 25.55 L8.15 25.45 7.65 26.95 8.05 25.55 M7.3 27.9 L7.2 28.15 6.8 28.0 7.15 28.05 7.3 27.9 M6.15 24.3 L6.2 24.4 6.1 24.45 6.15 24.3" fill="url(#gradient1)" fill-rule="evenodd" stroke="none"/>
    <path d="M9.1 4.8 L9.1 4.65 Q9.35 4.25 10.05 4.25 11.1 4.25 11.25 5.35 L11.0 6.0 10.7 6.3 10.15 6.4 Q9.0 6.4 9.0 5.05 L9.1 4.8" fill="#ff6699" fill-rule="evenodd" stroke="none"/>
    <path d="M3.9 12.7 Q4.4 11.75 5.05 11.1 L6.35 9.95 6.8 9.65 6.95 9.75 7.25 11.45 7.35 12.35 7.3 12.9 7.05 13.55 Q6.7 14.5 5.5 14.5 5.2 14.5 4.6 13.85 L3.9 12.7" fill="url(#gradient2)" fill-rule="evenodd" stroke="none"/>
    <path d="M3.9 12.7 L3.8 12.55 3.05 11.0 3.3 10.5 4.9 9.15 5.2 8.95 5.25 8.95 6.25 9.0 6.5 9.3 6.8 9.65 6.35 9.95 5.05 11.1 Q4.4 11.75 3.9 12.7" fill="url(#gradient3)" fill-rule="evenodd" stroke="none"/>
    <path d="M9.6 1.3 L9.85 1.45 Q10.55 2.45 10.7 4.0 L10.7 4.1 10.75 4.25 8.2 3.4 8.55 2.25 9.6 1.3" fill="url(#gradient4)" fill-rule="evenodd" stroke="none"/>
    <path d="M10.0 18.7 L10.55 19.05 10.25 20.6 10.35 20.95 9.65 20.7 Q9.15 20.4 7.4 19.8 L6.25 19.5 5.75 19.3 Q4.0 17.55 4.0 16.7 L4.1 15.4 5.1 15.65 5.5 15.8 5.65 15.85 5.55 16.0 Q5.25 16.05 5.25 16.35 L7.15 17.7 Q9.05 18.75 9.75 18.75 L10.0 18.7" fill="url(#gradient5)" fill-rule="evenodd" stroke="none"/>
    <path d="M6.6 27.95 L6.2 27.8 5.2 27.5 5.9 25.2 6.35 25.5 7.1 25.75 6.5 27.7 6.55 27.85 6.6 27.95" fill="url(#gradient6)" fill-rule="evenodd" stroke="none"/>
    <path d="M12.0 26.2 Q12.25 27.85 12.6 27.85 L12.65 27.85 12.65 28.0 11.9 28.2 11.7 27.65 11.1 26.4 11.05 26.35 11.3 26.4 12.0 26.2" fill="url(#gradient7)" fill-rule="evenodd" stroke="none"/>
    <path d="M11.05 8.8 L11.15 8.6 11.35 8.2 11.85 8.75 12.25 9.25 12.1 10.3 12.0 12.35 11.7 14.05 11.7 13.4 11.6 10.7 11.25 9.3 11.05 8.8" fill="url(#gradient8)" fill-rule="evenodd" stroke="none"/>
    <path d="M13.8 10.7 L14.1 10.95 13.65 11.95 13.25 13.3 12.65 14.35 12.6 14.2 12.75 12.75 12.8 11.9 Q12.8 10.5 13.05 10.2 L13.2 10.05 13.8 10.7 M11.75 16.05 Q11.75 15.7 12.2 15.7 L14.4 17.0 15.9 18.05 16.3 18.35 16.15 18.55 15.8 18.7 Q15.0 18.7 13.3 17.4 L11.75 16.05 M13.05 29.45 L13.45 29.9 13.6 30.75 13.3 32.6 Q12.9 34.15 12.6 34.15 L12.35 34.0 12.3 33.85 12.85 29.7 Q12.85 29.35 13.05 29.45 M6.45 29.65 L6.7 30.35 Q5.05 33.95 4.45 33.95 4.2 33.95 4.2 33.6 L5.45 31.2 5.95 29.9 Q6.15 29.25 6.45 29.65" fill="#181a23" fill-rule="evenodd" stroke="none"/>
    <path d="M8.7 1.2 L8.75 1.15 9.7 1.1 9.6 1.3 8.55 2.25 8.2 3.4 8.15 3.4 7.95 3.3 7.8 3.0 7.75 2.6 7.85 2.2 8.1 1.85 8.7 1.2 M5.65 15.85 L5.9 15.75 Q6.2 15.75 6.3 15.95 6.4 15.85 6.55 15.85 L8.1 17.2 9.35 17.7 Q10.25 18.1 10.25 18.35 L10.1 18.6 10.0 18.7 9.75 18.75 Q9.05 18.75 7.15 17.7 L5.25 16.35 Q5.25 16.05 5.55 16.0 L5.65 15.85 M12.0 26.2 L12.2 26.05 12.55 25.75 12.9 27.4 12.9 27.7 12.65 27.85 12.6 27.85 Q12.25 27.85 12.0 26.2 M7.1 25.75 L7.55 25.8 8.05 25.55 7.65 26.95 7.3 27.9 7.15 28.05 6.8 28.0 6.6 27.95 6.55 27.85 6.5 27.7 7.1 25.75" fill="#6b939c" fill-rule="evenodd" stroke="none"/>
  </g>
  <defs>
    <linearGradient gradientTransform="matrix(-8.0E-4, 0.0014, -0.0019, -0.0011, 9.6, 2.75)" gradientUnits="userSpaceOnUse" id="gradient0" spreadMethod="pad" x1="-819.2" x2="819.2">
      <stop offset="0.0" stop-color="#39382d"/>
      <stop offset="1.0" stop-color="#47523f"/>
    </linearGradient>
    <linearGradient gradientTransform="matrix(-0.0018, 0.0033, -0.0016, -9.0E-4, 7.2, 25.05)" gradientUnits="userSpaceOnUse" id="gradient1" spreadMethod="pad" x1="-819.2" x2="819.2">
      <stop offset="0.0" stop-color="#3d3f27"/>
      <stop offset="1.0" stop-color="#23261e"/>
    </linearGradient>
    <linearGradient gradientTransform="matrix(7.0E-4, -0.003, 0.002, 5.0E-4, 5.75, 11.95)" gradientUnits="userSpaceOnUse" id="gradient2" spreadMethod="pad" x1="-819.2" x2="819.2">
      <stop offset="0.3058823529411765" stop-color="#1d2627"/>
      <stop offset="1.0" stop-color="#28333e"/>
    </linearGradient>
    <linearGradient gradientTransform="matrix(-0.0019, 0.0019, -9.0E-4, -9.0E-4, 4.7, 10.5)" gradientUnits="userSpaceOnUse" id="gradient3" spreadMethod="pad" x1="-819.2" x2="819.2">
      <stop offset="0.0" stop-color="#2c3d43"/>
      <stop offset="1.0" stop-color="#424560"/>
    </linearGradient>
    <linearGradient gradientTransform="matrix(-8.0E-4, 0.0014, -0.0019, -0.0011, 9.6, 2.75)" gradientUnits="userSpaceOnUse" id="gradient4" spreadMethod="pad" x1="-819.2" x2="819.2">
      <stop offset="0.0" stop-color="#2b283e"/>
      <stop offset="1.0" stop-color="#3c5155"/>
    </linearGradient>
    <linearGradient gradientTransform="matrix(0.0043, 0.0025, -9.0E-4, 0.0016, 7.15, 18.35)" gradientUnits="userSpaceOnUse" id="gradient5" spreadMethod="pad" x1="-819.2" x2="819.2">
      <stop offset="0.0" stop-color="#0f1213"/>
      <stop offset="1.0" stop-color="#2b333c"/>
    </linearGradient>
    <linearGradient gradientTransform="matrix(-0.0018, 0.0033, -0.0016, -9.0E-4, 7.2, 25.05)" gradientUnits="userSpaceOnUse" id="gradient6" spreadMethod="pad" x1="-819.2" x2="819.2">
      <stop offset="0.0" stop-color="#29393d"/>
      <stop offset="1.0" stop-color="#1e1f26"/>
    </linearGradient>
    <linearGradient gradientTransform="matrix(5.0E-4, 0.0021, -8.0E-4, 2.0E-4, 11.7, 26.5)" gradientUnits="userSpaceOnUse" id="gradient7" spreadMethod="pad" x1="-819.2" x2="819.2">
      <stop offset="0.0" stop-color="#29393d"/>
      <stop offset="1.0" stop-color="#1e1f26"/>
    </linearGradient>
    <linearGradient gradientTransform="matrix(0.0, -0.0036, 7.0E-4, 0.0, 11.65, 11.15)" gradientUnits="userSpaceOnUse" id="gradient8" spreadMethod="pad" x1="-819.2" x2="819.2">
      <stop offset="0.3058823529411765" stop-color="#1c1f28"/>
      <stop offset="1.0" stop-color="#2d3039"/>
    </linearGradient>
  </defs>
</svg>
