<?xml version="1.0" encoding="UTF-8" standalone="no"?>
<svg xmlns:ffdec="https://www.free-decompiler.com/flash" xmlns:xlink="http://www.w3.org/1999/xlink" ffdec:objectType="shape" height="37.0px" width="19.8px" xmlns="http://www.w3.org/2000/svg">
  <g transform="matrix(1.0, 0.0, 0.0, 1.0, 0.0, 0.0)">
    <path d="M15.2 11.65 L15.2 11.7 15.15 11.65 15.2 11.65 M12.4 16.65 L12.45 16.6 12.45 16.7 12.4 16.65 M13.05 23.7 L13.1 23.85 13.0 23.8 13.05 23.7 M12.75 22.7 L12.75 22.75 12.6 22.65 12.75 22.7 M4.75 33.2 L4.7 33.25 4.7 33.2 4.75 33.2" fill="#333333" fill-rule="evenodd" stroke="none"/>
    <path d="M10.1 5.85 Q10.1 5.75 10.3 5.75 L11.3 6.05 Q11.85 6.3 11.85 6.45 L11.6 6.8 11.55 6.8 10.65 6.45 10.05 5.95 10.1 5.85" fill="#00ff00" fill-rule="evenodd" stroke="none"/>
    <path d="M11.6 6.8 L11.6 7.25 11.55 7.55 11.6 7.8 11.6 8.05 11.65 8.05 11.65 8.25 11.55 8.2 10.35 8.0 10.15 7.9 10.15 7.95 10.1 7.9 9.75 7.6 9.5 6.95 9.45 6.65 9.35 6.4 9.35 6.15 9.3 5.65 9.2 5.4 9.8 5.7 10.05 5.85 10.1 5.85 10.05 5.95 10.65 6.45 11.55 6.8 11.6 6.8" fill="#2c2c21" fill-rule="evenodd" stroke="none"/>
    <path d="M8.85 4.3 L8.5 4.2 8.5 4.05 8.5 4.0 8.75 3.2 8.65 3.6 8.7 4.0 8.85 4.3 M9.0 2.85 L9.0 2.75 9.45 2.25 9.6 2.2 9.0 2.85" fill="url(#gradient0)" fill-rule="evenodd" stroke="none"/>
    <path d="M10.5 2.3 L10.6 2.1 9.65 2.15 9.6 2.2 9.45 2.25 9.0 2.75 9.0 2.85 8.75 3.2 8.5 4.0 8.5 4.05 8.5 4.2 8.85 4.3 9.05 4.4 9.1 4.4 11.65 5.25 11.6 5.1 11.6 5.0 Q11.45 3.45 10.75 2.45 L10.5 2.3 M12.55 2.35 L13.15 3.7 13.15 4.6 Q13.3 5.3 13.7 5.65 L14.0 6.2 13.8 6.45 13.7 6.45 12.95 6.2 12.85 6.6 12.45 8.05 12.4 8.2 13.15 8.7 Q13.65 8.7 15.25 10.2 L15.25 10.25 15.4 10.45 15.35 10.75 15.4 10.85 15.65 11.65 15.7 11.7 15.7 11.75 15.75 11.9 15.65 12.25 14.3 15.7 14.25 15.85 Q14.45 16.6 15.75 17.75 L16.15 18.0 17.0 18.6 17.8 18.85 18.25 18.95 Q18.45 18.6 18.95 18.4 19.8 18.1 19.8 18.7 L19.0 20.35 18.2 21.8 18.25 21.9 18.25 22.05 18.2 22.1 18.2 22.2 18.1 22.45 17.75 22.8 17.3 23.15 17.05 23.1 16.7 23.2 15.2 22.6 14.9 22.05 14.85 21.75 14.95 21.25 14.9 21.0 14.65 20.95 14.65 21.05 14.15 22.05 Q13.7 22.8 13.35 22.8 L13.15 22.8 13.4 23.35 13.45 23.4 13.7 24.55 14.3 26.9 15.05 31.45 14.75 34.05 14.7 34.1 Q14.2 34.95 14.2 35.35 L14.25 35.55 14.75 35.55 Q16.65 35.55 16.65 36.25 L16.6 36.6 16.4 37.0 11.1 37.0 11.25 36.6 11.45 35.75 11.5 35.65 11.45 35.65 11.45 35.55 11.6 35.2 11.75 33.75 11.6 31.7 11.55 31.3 11.3 29.05 10.8 28.0 10.1 27.1 8.4 30.8 8.1 31.5 8.05 31.65 7.4 33.05 7.3 33.15 6.25 34.7 6.15 34.75 5.95 35.05 5.9 35.2 7.95 35.5 Q8.35 35.6 8.35 36.05 L8.2 36.45 7.9 36.85 7.75 37.0 2.2 37.0 2.2 36.95 Q2.2 36.65 2.95 35.65 L2.9 35.65 3.05 35.25 4.35 30.65 5.6 26.2 5.7 25.45 6.0 23.6 6.0 23.5 6.0 23.4 5.95 23.35 5.9 22.95 5.6 22.05 5.45 21.65 5.05 20.75 4.6 19.95 Q3.95 19.5 3.85 19.0 L3.3 17.15 3.05 16.1 2.95 15.8 2.45 13.75 1.3 12.4 2.2 11.6 3.6 10.05 3.6 10.0 3.65 9.9 Q3.85 9.35 4.65 8.55 L5.25 7.95 5.7 7.55 6.85 6.95 7.6 6.65 7.65 5.95 Q7.65 4.6 6.8 3.75 L7.35 3.55 8.1 2.7 8.15 2.65 8.5 2.1 Q8.65 1.8 9.6 1.5 L10.65 1.25 10.7 1.25 11.5 1.45 11.6 1.45 12.45 2.25 12.55 2.35 M11.6 6.8 L11.85 6.45 Q11.85 6.3 11.3 6.05 L10.3 5.75 Q10.1 5.75 10.1 5.85 L10.05 5.85 9.8 5.7 9.2 5.4 9.3 5.65 9.35 6.15 9.35 6.4 9.45 6.65 9.5 6.95 9.75 7.6 10.1 7.9 10.15 7.95 10.15 7.9 10.35 8.0 11.55 8.2 11.65 8.25 11.65 8.05 11.6 8.05 11.6 7.8 11.55 7.55 11.6 7.25 11.6 6.8 M12.5 11.7 L12.6 14.4 12.6 15.05 12.9 13.35 13.0 11.3 13.15 10.25 12.75 9.75 12.25 9.2 12.05 9.6 11.95 9.8 12.15 10.3 12.5 11.7 M10.95 10.95 L9.95 10.5 9.85 10.45 9.8 12.05 9.7 15.25 9.9 15.45 10.8 15.85 10.95 15.9 11.05 14.8 10.85 11.8 10.95 10.95 M15.1 12.15 Q14.5 10.4 13.95 11.2 13.7 11.5 13.7 12.9 L13.65 13.75 13.5 15.2 13.55 15.4 13.85 15.6 Q14.3 15.6 15.1 12.15 M15.2 11.65 L15.15 11.65 15.2 11.7 15.2 11.65 M7.7 10.65 L7.4 10.3 7.15 10.0 6.15 9.95 6.1 9.95 5.8 10.15 4.2 11.5 3.95 12.0 4.7 13.55 4.8 13.7 5.5 14.85 Q6.1 15.5 6.4 15.5 7.6 15.5 7.95 14.55 L8.2 13.9 8.25 13.35 8.15 12.45 7.85 10.75 7.7 10.65 M6.55 16.85 L6.4 16.8 6.0 16.65 5.0 16.4 4.9 17.7 Q4.9 18.55 6.65 20.3 L7.15 20.5 8.3 20.8 Q10.05 21.4 10.55 21.7 L11.25 21.95 11.15 21.6 11.45 20.05 10.9 19.7 11.0 19.6 11.15 19.35 Q11.15 19.1 10.25 18.7 L9.0 18.2 7.45 16.85 Q7.3 16.85 7.2 16.95 7.1 16.75 6.8 16.75 L6.55 16.85 M9.5 23.4 L9.35 23.35 9.2 23.3 8.05 22.95 7.9 23.35 7.85 23.4 7.65 23.85 6.8 26.1 6.1 28.5 7.1 28.8 7.5 28.95 7.7 29.0 8.1 29.15 8.2 28.9 8.55 27.95 9.2 25.85 9.65 24.7 9.65 24.65 9.7 24.55 9.8 24.2 9.95 23.9 10.1 23.7 10.0 23.65 10.0 23.5 10.0 23.4 10.0 23.35 Q9.95 23.2 9.75 23.2 L9.55 23.35 9.5 23.4 M12.4 16.65 L12.45 16.7 12.45 16.6 12.4 16.65 M12.65 17.05 L14.2 18.4 Q15.9 19.7 16.7 19.7 L17.05 19.55 17.2 19.3 15.3 18.0 13.1 16.7 Q12.65 16.7 12.65 17.05 M12.75 22.7 L12.6 22.65 12.75 22.75 12.75 22.7 M13.05 23.7 L13.0 23.8 13.1 23.85 13.05 23.7 M13.4 26.55 L13.1 25.55 12.7 25.1 Q12.4 25.0 12.4 25.35 L12.6 26.1 11.9 26.95 11.7 26.85 12.6 28.65 12.8 29.2 13.55 29.0 13.55 28.85 13.8 28.7 13.8 28.4 13.4 26.55 M14.35 30.9 L13.95 30.45 Q13.75 30.35 13.75 30.7 L13.2 34.85 13.25 35.0 13.5 35.15 Q13.8 35.15 14.2 33.6 L14.5 31.75 14.35 30.9 M7.35 30.65 Q7.05 30.25 6.85 30.9 L6.35 32.2 5.1 34.6 Q5.1 34.95 5.35 34.95 5.95 34.95 7.6 31.35 L7.35 30.65 M4.75 33.2 L4.7 33.2 4.7 33.25 4.75 33.2" fill="#090909" fill-rule="evenodd" stroke="none"/>
    <path d="M10.0 23.65 L10.1 23.7 9.95 23.9 9.8 24.2 10.0 23.65 M9.7 24.55 L9.65 24.65 9.65 24.7 9.7 24.55 M9.2 25.85 L8.55 27.95 9.0 26.25 9.2 25.85 M8.2 28.9 L8.1 29.15 7.7 29.0 8.05 29.05 8.2 28.9" fill="url(#gradient1)" fill-rule="evenodd" stroke="none"/>
    <path d="M10.5 2.3 L10.75 2.45 Q11.45 3.45 11.6 5.0 L11.6 5.1 11.65 5.25 9.1 4.4 9.45 3.25 10.5 2.3" fill="url(#gradient2)" fill-rule="evenodd" stroke="none"/>
    <path d="M7.5 28.95 L7.1 28.8 6.1 28.5 6.8 26.1 7.65 23.85 7.85 23.4 7.9 23.35 8.05 22.95 9.2 23.3 9.35 23.35 9.5 23.4 Q9.05 23.95 8.35 25.85 7.4 28.3 7.4 28.7 L7.45 28.85 7.5 28.95" fill="url(#gradient3)" fill-rule="evenodd" stroke="none"/>
    <path d="M9.6 2.2 L9.65 2.15 10.6 2.1 10.5 2.3 9.45 3.25 9.1 4.4 9.05 4.4 8.85 4.3 8.7 4.0 8.65 3.6 8.75 3.2 9.0 2.85 9.6 2.2 M12.5 11.7 L12.15 10.3 11.95 9.8 12.05 9.6 12.25 9.2 12.75 9.75 13.15 10.25 13.0 11.3 12.9 13.35 12.6 15.05 12.6 14.4 12.5 11.7 M15.1 12.15 Q14.3 15.6 13.85 15.6 L13.55 15.4 13.5 15.2 13.65 13.75 13.7 12.9 Q13.7 11.5 13.95 11.2 14.5 10.4 15.1 12.15 M4.8 13.7 L4.7 13.55 3.95 12.0 4.2 11.5 5.8 10.15 6.1 9.95 6.15 9.95 7.15 10.0 7.4 10.3 7.7 10.65 7.25 10.95 5.95 12.1 Q5.3 12.75 4.8 13.7 M6.55 16.85 L6.8 16.75 Q7.1 16.75 7.2 16.95 7.3 16.85 7.45 16.85 L9.0 18.2 10.25 18.7 Q11.15 19.1 11.15 19.35 L11.0 19.6 10.9 19.7 10.65 19.75 Q9.95 19.75 8.05 18.7 L6.15 17.35 Q6.15 17.05 6.45 17.0 L6.55 16.85 M7.5 28.95 L7.45 28.85 7.4 28.7 Q7.4 28.3 8.35 25.85 9.05 23.95 9.5 23.4 L9.55 23.35 9.75 23.2 Q9.95 23.2 10.0 23.35 L10.0 23.4 10.0 23.5 10.0 23.65 9.8 24.2 9.7 24.55 9.65 24.7 9.2 25.85 9.0 26.25 8.55 27.95 8.2 28.9 8.05 29.05 7.7 29.0 7.5 28.95 M12.65 17.05 Q12.65 16.7 13.1 16.7 L15.3 18.0 17.2 19.3 17.05 19.55 16.7 19.7 Q15.9 19.7 14.2 18.4 L12.65 17.05" fill="#ffffff" fill-rule="evenodd" stroke="none"/>
    <path d="M4.8 13.7 Q5.3 12.75 5.95 12.1 L7.25 10.95 7.7 10.65 7.85 10.75 8.15 12.45 8.25 13.35 8.2 13.9 7.95 14.55 Q7.6 15.5 6.4 15.5 6.1 15.5 5.5 14.85 L4.8 13.7" fill="url(#gradient4)" fill-rule="evenodd" stroke="none"/>
    <path d="M10.9 19.7 L11.45 20.05 11.15 21.6 11.25 21.95 10.55 21.7 Q10.05 21.4 8.3 20.8 L7.15 20.5 6.65 20.3 Q4.9 18.55 4.9 17.7 L5.0 16.4 6.0 16.65 6.4 16.8 6.55 16.85 6.45 17.0 Q6.15 17.05 6.15 17.35 L8.05 18.7 Q9.95 19.75 10.65 19.75 L10.9 19.7" fill="url(#gradient5)" fill-rule="evenodd" stroke="none"/>
    <path d="M7.35 30.65 L7.6 31.35 Q5.95 34.95 5.35 34.95 5.1 34.95 5.1 34.6 L6.35 32.2 6.85 30.9 Q7.05 30.25 7.35 30.65" fill="url(#gradient6)" fill-rule="evenodd" stroke="none"/>
    <path d="M14.35 30.9 L14.5 31.75 14.2 33.6 Q13.8 35.15 13.5 35.15 L13.25 35.0 13.2 34.85 13.75 30.7 Q13.75 30.35 13.95 30.45 L14.35 30.9" fill="url(#gradient7)" fill-rule="evenodd" stroke="none"/>
    <path d="M13.4 26.55 L13.8 28.4 13.8 28.7 13.55 28.85 13.55 29.0 12.8 29.2 12.6 28.65 11.7 26.85 11.9 26.95 12.6 26.1 12.4 25.35 Q12.4 25.0 12.7 25.1 L13.1 25.55 13.4 26.55" fill="#737373" fill-rule="evenodd" stroke="none"/>
  </g>
  <defs>
    <linearGradient gradientTransform="matrix(-8.0E-4, 0.0014, -0.0019, -0.0011, 10.5, 3.75)" gradientUnits="userSpaceOnUse" id="gradient0" spreadMethod="pad" x1="-819.2" x2="819.2">
      <stop offset="0.0" stop-color="#39382d"/>
      <stop offset="1.0" stop-color="#47523f"/>
    </linearGradient>
    <linearGradient gradientTransform="matrix(-0.0018, 0.0033, -0.0016, -9.0E-4, 8.1, 26.05)" gradientUnits="userSpaceOnUse" id="gradient1" spreadMethod="pad" x1="-819.2" x2="819.2">
      <stop offset="0.0" stop-color="#3d3f27"/>
      <stop offset="1.0" stop-color="#23261e"/>
    </linearGradient>
    <linearGradient gradientTransform="matrix(-8.0E-4, 0.0014, -0.0019, -0.0011, 10.5, 3.75)" gradientUnits="userSpaceOnUse" id="gradient2" spreadMethod="pad" x1="-819.2" x2="819.2">
      <stop offset="0.0" stop-color="#bfbfbf"/>
      <stop offset="1.0" stop-color="#67717e"/>
      <stop offset="1.0" stop-color="#545c67"/>
    </linearGradient>
    <linearGradient gradientTransform="matrix(-0.0018, 0.0033, -0.0016, -9.0E-4, 8.1, 26.05)" gradientUnits="userSpaceOnUse" id="gradient3" spreadMethod="pad" x1="-819.2" x2="819.2">
      <stop offset="0.0" stop-color="#bfbfbf"/>
      <stop offset="1.0" stop-color="#67717e"/>
      <stop offset="1.0" stop-color="#545c67"/>
    </linearGradient>
    <linearGradient gradientTransform="matrix(7.0E-4, -0.003, 0.002, 5.0E-4, 6.65, 12.95)" gradientUnits="userSpaceOnUse" id="gradient4" spreadMethod="pad" x1="-819.2" x2="819.2">
      <stop offset="0.0" stop-color="#3e3931"/>
      <stop offset="1.0" stop-color="#6d6156"/>
    </linearGradient>
    <linearGradient gradientTransform="matrix(0.0043, 0.0025, -9.0E-4, 0.0016, 8.05, 19.35)" gradientUnits="userSpaceOnUse" id="gradient5" spreadMethod="pad" x1="-819.2" x2="819.2">
      <stop offset="0.0" stop-color="#3e3931"/>
      <stop offset="1.0" stop-color="#6d6156"/>
    </linearGradient>
    <linearGradient gradientTransform="matrix(0.0015, 0.0, 0.0, 0.0027, 6.35, 32.7)" gradientUnits="userSpaceOnUse" id="gradient6" spreadMethod="pad" x1="-819.2" x2="819.2">
      <stop offset="0.0" stop-color="#3e3931"/>
      <stop offset="1.0" stop-color="#6d6156"/>
    </linearGradient>
    <linearGradient gradientTransform="matrix(8.0E-4, 0.0, 0.0, 0.0029, 13.85, 32.8)" gradientUnits="userSpaceOnUse" id="gradient7" spreadMethod="pad" x1="-819.2" x2="819.2">
      <stop offset="0.0" stop-color="#3e3931"/>
      <stop offset="1.0" stop-color="#6d6156"/>
    </linearGradient>
  </defs>
</svg>
