<?xml version="1.0" encoding="UTF-8" standalone="no"?>
<svg xmlns:ffdec="https://www.free-decompiler.com/flash" xmlns:xlink="http://www.w3.org/1999/xlink" ffdec:objectType="shape" height="35.75px" width="28.45px" xmlns="http://www.w3.org/2000/svg">
  <g transform="matrix(1.0, 0.0, 0.0, 1.0, 0.0, 0.0)">
    <path d="M24.6 20.45 L22.35 19.25 22.15 19.6 21.7 20.65 21.65 20.65 21.65 20.8 21.6 20.85 21.6 20.95 21.5 21.2 21.15 21.55 20.7 21.9 20.45 21.85 20.1 21.95 18.6 21.35 18.3 20.8 18.25 20.5 18.35 20.0 18.35 19.9 18.05 19.85 17.7 20.55 17.15 21.35 17.15 21.85 17.7 23.85 Q17.7 23.9 17.7 23.95 17.7 24.0 17.7 24.05 17.65 24.05 17.65 24.1 17.65 24.15 17.6 24.15 17.6 24.2 17.55 24.2 17.55 24.2 17.5 24.25 17.45 24.25 17.45 24.25 17.4 24.25 17.35 24.25 L17.3 24.25 17.7 25.65 18.45 30.2 18.15 32.8 18.1 32.85 Q18.05 32.95 18.0 33.05 17.95 33.15 17.9 33.25 17.85 33.35 17.8 33.4 17.75 33.5 17.75 33.6 17.7 33.65 17.65 33.75 17.65 33.8 17.65 33.85 17.6 33.95 17.6 34.0 17.6 34.05 17.6 34.1 L17.65 34.3 18.15 34.3 Q18.4 34.3 18.6 34.3 18.8 34.3 19.0 34.35 19.15 34.35 19.3 34.4 19.45 34.45 19.6 34.45 19.7 34.5 19.8 34.55 19.85 34.65 19.95 34.7 20.0 34.75 20.0 34.85 20.05 34.9 20.05 35.0 L20.0 35.35 19.8 35.75 14.5 35.75 14.65 35.35 14.85 34.5 14.9 34.4 14.85 34.4 14.85 34.3 15.0 33.95 15.15 32.5 15.0 30.45 14.95 30.05 14.7 27.8 14.2 26.75 13.5 25.85 11.8 29.55 11.5 30.25 11.45 30.4 10.8 31.8 10.7 31.9 9.65 33.45 9.55 33.5 9.35 33.8 9.3 33.95 11.35 34.25 Q11.4 34.25 11.45 34.3 11.5 34.3 11.55 34.3 11.55 34.35 11.6 34.35 11.65 34.4 11.65 34.45 11.7 34.45 11.7 34.5 11.7 34.55 11.75 34.6 11.75 34.65 11.75 34.7 11.75 34.75 11.75 34.8 L11.6 35.2 11.3 35.6 11.15 35.75 5.6 35.75 5.6 35.7 Q5.6 35.65 5.6 35.6 5.6 35.55 5.65 35.5 5.65 35.45 5.7 35.4 5.75 35.3 5.8 35.25 5.85 35.15 5.9 35.05 5.95 35.0 6.0 34.9 6.1 34.8 6.15 34.7 6.25 34.55 6.35 34.45 L6.35 34.4 6.3 34.4 6.45 34.0 7.75 29.4 9.0 24.95 9.1 24.2 9.4 22.35 9.4 22.25 9.4 22.2 9.4 22.15 9.35 22.1 9.3 21.7 9.0 20.8 8.85 20.4 8.45 19.5 8.0 18.7 Q7.9 18.65 7.85 18.6 7.75 18.55 7.7 18.45 7.65 18.4 7.6 18.35 7.55 18.3 7.5 18.25 7.45 18.2 7.4 18.1 7.35 18.05 7.35 18.0 7.3 17.95 7.3 17.85 7.25 17.8 7.25 17.75 L6.7 15.9 6.45 14.85 6.35 14.55 5.85 12.5 5.15 11.7 4.5 11.35 4.05 11.1 3.55 10.85 2.95 10.8 2.5 10.95 1.6 11.1 Q1.45 11.1 1.3 11.05 1.15 11.0 1.0 10.9 0.9 10.8 0.75 10.7 0.65 10.55 0.55 10.35 0.45 10.2 0.35 9.95 0.3 9.7 0.2 9.45 0.15 9.15 0.1 8.85 0.05 8.5 0.0 8.15 0.0 8.0 0.0 7.85 0.0 7.7 0.05 7.55 0.05 7.45 0.1 7.35 0.15 7.2 0.15 7.15 0.2 7.05 0.25 7.0 0.35 6.95 0.4 6.9 0.45 6.85 0.55 6.8 0.6 6.8 0.7 6.8 0.8 6.8 0.95 6.8 1.05 6.8 1.2 6.85 1.35 6.85 1.45 6.9 1.6 6.95 1.75 6.95 1.9 7.0 2.05 7.05 2.2 7.15 2.35 7.2 2.5 7.25 2.65 7.35 2.85 7.4 3.0 7.5 L3.55 7.8 4.85 8.5 6.55 9.45 7.0 8.8 7.0 8.75 7.05 8.65 Q7.05 8.6 7.1 8.5 7.15 8.45 7.2 8.35 7.25 8.3 7.3 8.2 7.35 8.1 7.4 8.05 7.45 7.95 7.55 7.85 7.6 7.8 7.7 7.7 7.75 7.6 7.85 7.5 7.95 7.4 8.05 7.3 L8.65 6.7 9.1 6.3 10.25 5.7 11.0 5.4 11.05 4.7 Q11.05 4.55 11.05 4.35 11.0 4.2 11.0 4.05 10.95 3.9 10.95 3.75 10.9 3.6 10.85 3.5 10.8 3.35 10.7 3.2 10.65 3.1 10.55 2.95 10.5 2.85 10.4 2.7 10.3 2.6 10.2 2.5 L10.75 2.3 11.5 1.45 11.55 1.4 11.9 0.85 Q11.9 0.8 11.95 0.8 12.0 0.75 12.05 0.7 12.05 0.65 12.15 0.65 12.2 0.6 12.25 0.55 12.3 0.5 12.4 0.5 12.5 0.45 12.6 0.4 12.65 0.35 12.8 0.35 12.9 0.3 13.0 0.25 L14.05 0.0 14.1 0.0 14.9 0.2 15.0 0.2 15.85 1.0 15.95 1.1 16.55 2.45 16.55 3.35 Q16.55 3.45 16.6 3.5 16.6 3.6 16.65 3.7 16.65 3.75 16.7 3.85 16.75 3.9 16.75 3.95 16.8 4.05 16.85 4.1 16.85 4.15 16.9 4.2 16.95 4.25 17.0 4.3 17.05 4.35 17.1 4.4 L17.4 4.95 17.2 5.2 17.1 5.2 16.35 4.95 16.25 5.35 15.85 6.8 15.8 6.95 16.55 7.45 Q16.6 7.45 16.7 7.45 16.75 7.5 16.85 7.55 16.95 7.6 17.1 7.65 17.2 7.75 17.3 7.85 17.45 7.9 17.6 8.05 17.75 8.15 17.9 8.3 18.1 8.45 18.25 8.6 18.45 8.75 18.65 8.95 L18.65 9.0 18.8 9.2 18.75 9.5 18.8 9.6 19.05 10.4 19.1 10.45 19.1 10.5 19.15 10.65 19.05 11.0 18.9 11.7 18.75 12.05 18.55 13.2 19.05 14.4 19.6 15.8 19.65 15.8 20.75 16.2 Q20.95 16.25 21.1 16.3 21.3 16.35 21.45 16.35 21.6 16.4 21.7 16.45 21.85 16.5 21.95 16.55 22.1 16.6 22.2 16.6 22.3 16.65 22.4 16.7 22.45 16.75 22.55 16.75 22.6 16.8 22.65 16.85 L22.75 16.8 22.8 16.9 23.75 17.4 25.7 18.5 27.45 19.5 Q27.6 19.6 27.7 19.65 27.8 19.7 27.9 19.8 28.0 19.85 28.05 19.9 28.15 20.0 28.2 20.05 28.25 20.1 28.3 20.15 28.35 20.25 28.4 20.3 28.4 20.35 28.45 20.4 28.45 20.45 28.45 20.5 L28.1 21.15 Q28.05 21.2 28.0 21.25 27.95 21.3 27.85 21.35 27.8 21.4 27.75 21.4 27.7 21.45 27.6 21.5 27.55 21.5 27.5 21.55 27.4 21.55 27.35 21.55 27.25 21.6 27.2 21.6 27.1 21.6 27.05 21.6 L24.6 20.45 M14.35 9.7 L13.35 9.25 13.25 9.2 13.2 10.8 13.1 14.0 13.3 14.2 14.2 14.6 14.35 14.65 14.45 13.55 14.25 10.55 14.35 9.7" fill="#090909" fill-rule="evenodd" stroke="none"/>
    <path d="M12.4 1.6 L12.4 1.5 12.85 1.0 13.0 0.95 12.4 1.6 M13.9 1.05 L14.15 1.2 Q14.85 2.2 15.0 3.75 L15.0 3.85 15.05 4.0 12.5 3.15 12.85 2.0 13.9 1.05 M12.25 3.05 L11.9 2.95 11.9 2.8 11.9 2.75 12.15 1.95 12.05 2.35 12.1 2.75 12.25 3.05" fill="url(#gradient0)" fill-rule="evenodd" stroke="none"/>
    <path d="M12.4 1.6 L13.0 0.95 13.05 0.9 14.0 0.85 13.9 1.05 12.85 2.0 12.5 3.15 12.45 3.15 12.25 3.05 12.1 2.75 12.05 2.35 12.15 1.95 12.4 1.6" fill="#d58569" fill-rule="evenodd" stroke="none"/>
    <path d="M13.5 4.6 L13.45 4.7 14.05 5.2 14.95 5.55 15.0 5.55 15.0 6.0 14.95 6.3 15.0 6.55 15.0 6.8 15.05 6.8 15.05 7.0 14.95 6.95 13.75 6.75 13.55 6.65 13.55 6.7 13.5 6.65 13.15 6.35 12.9 5.7 12.85 5.4 12.75 5.15 12.75 4.9 12.7 4.4 12.6 4.15 13.2 4.45 13.45 4.6 13.5 4.6" fill="#6d2c21" fill-rule="evenodd" stroke="none"/>
    <path d="M15.35 8.55 L15.45 8.35 15.65 7.95 16.15 8.5 16.55 9.0 16.4 10.05 16.3 12.1 16.0 13.8 16.0 13.15 15.9 10.45 15.55 9.05 15.35 8.55" fill="url(#gradient1)" fill-rule="evenodd" stroke="none"/>
    <path d="M17.65 9.7 Q17.7 9.7 17.75 9.7 17.8 9.7 17.85 9.75 17.9 9.8 17.95 9.85 18.0 9.9 18.05 10.0 18.1 10.05 18.15 10.15 18.2 10.25 18.3 10.35 18.35 10.45 18.4 10.6 18.45 10.75 18.5 10.9 18.4 11.35 18.3 11.7 18.2 12.1 18.1 12.4 18.05 12.75 17.95 13.0 17.85 13.25 17.8 13.5 17.7 13.7 17.65 13.85 17.55 14.05 17.5 14.15 17.45 14.25 17.35 14.3 17.3 14.35 17.25 14.35 L17.1 14.3 16.95 14.15 16.9 13.95 17.05 12.5 17.1 11.65 Q17.1 11.45 17.1 11.3 17.1 11.15 17.1 11.0 17.1 10.9 17.15 10.75 17.15 10.65 17.15 10.55 17.2 10.4 17.2 10.35 17.2 10.25 17.25 10.15 17.25 10.1 17.3 10.05 17.3 10.0 17.35 9.95 17.4 9.9 17.4 9.9 17.45 9.85 17.45 9.8 17.5 9.8 17.55 9.75 17.55 9.75 17.6 9.75 17.6 9.7 17.65 9.7 M10.75 29.4 L11.0 30.1 10.55 31.05 Q10.4 31.4 10.25 31.65 10.1 31.95 9.95 32.2 9.8 32.45 9.7 32.65 9.55 32.85 9.45 33.05 9.35 33.2 9.25 33.35 9.15 33.45 9.05 33.55 8.95 33.6 8.9 33.65 8.8 33.7 8.75 33.7 8.7 33.7 8.7 33.7 8.65 33.7 8.65 33.7 8.6 33.65 8.6 33.65 8.6 33.65 8.55 33.6 8.55 33.6 8.55 33.55 8.5 33.55 8.5 33.5 8.5 33.45 8.5 33.45 8.5 33.4 8.5 33.35 L9.7 31.1 9.75 30.95 10.25 29.65 Q10.25 29.55 10.3 29.5 10.35 29.45 10.35 29.4 10.4 29.35 10.4 29.3 10.45 29.3 10.45 29.25 10.5 29.25 10.55 29.25 10.55 29.25 10.6 29.25 10.65 29.3 10.7 29.3 10.7 29.35 10.75 29.4 M17.9 30.5 L17.85 31.25 17.6 32.35 Q17.55 32.55 17.5 32.7 17.45 32.9 17.4 33.05 17.35 33.15 17.3 33.3 17.25 33.4 17.2 33.5 17.2 33.6 17.15 33.7 17.1 33.75 17.05 33.8 17.0 33.85 17.0 33.9 16.95 33.9 16.9 33.9 L16.65 33.75 16.6 33.6 17.0 31.15 17.15 29.45 Q17.15 29.35 17.15 29.3 17.2 29.25 17.2 29.2 17.25 29.2 17.25 29.2 17.3 29.15 17.35 29.2 L17.75 29.65 17.9 30.5" fill="#581e18" fill-rule="evenodd" stroke="none"/>
    <path d="M11.1 9.4 L11.25 9.5 11.55 11.2 11.65 12.1 11.6 12.65 11.35 13.3 Q11.0 14.25 9.8 14.25 9.5 14.25 8.9 13.6 L8.2 12.45 Q8.7 11.5 9.35 10.85 L10.65 9.7 11.1 9.4" fill="url(#gradient2)" fill-rule="evenodd" stroke="none"/>
    <path d="M9.95 15.6 L10.2 15.5 10.6 15.7 10.85 15.6 12.4 16.95 13.65 17.45 14.55 18.1 14.4 18.35 14.3 18.45 14.05 18.5 Q13.35 18.5 11.45 17.45 10.3 16.85 9.9 16.5 L9.55 16.1 9.75 15.8 9.85 15.75 9.95 15.6" fill="#8e4a3a" fill-rule="evenodd" stroke="none"/>
    <path d="M14.3 18.45 L14.85 18.8 14.65 19.95 14.55 20.35 14.65 20.7 13.95 20.45 11.7 19.55 10.65 19.3 10.55 19.25 10.05 19.05 Q8.3 17.3 8.3 16.45 L8.4 15.15 9.4 15.4 9.7 15.5 9.8 15.55 9.95 15.6 9.85 15.75 9.75 15.8 9.55 16.1 9.9 16.5 Q10.3 16.85 11.45 17.45 13.35 18.5 14.05 18.5 L14.3 18.45" fill="url(#gradient3)" fill-rule="evenodd" stroke="none"/>
    <path d="M11.1 9.4 L10.65 9.7 9.35 10.85 Q8.7 11.5 8.2 12.45 L8.1 12.3 7.35 10.75 7.6 10.25 8.15 9.7 8.75 9.25 9.2 8.9 9.5 8.7 9.55 8.7 10.55 8.75 10.8 9.05 11.1 9.4" fill="url(#gradient4)" fill-rule="evenodd" stroke="none"/>
    <path d="M10.9 27.7 L10.5 27.55 9.5 27.25 10.2 24.85 11.05 22.6 11.25 22.15 11.3 22.1 11.45 21.7 12.6 22.05 12.75 22.1 12.9 22.15 Q12.45 22.7 11.75 24.6 10.8 27.05 10.8 27.45 L10.85 27.6 10.9 27.7 M13.4 22.4 L13.5 22.45 13.35 22.65 13.25 22.8 13.4 22.4 M12.6 24.6 L11.95 26.7 12.4 25.0 12.6 24.6 M11.6 27.65 L11.5 27.9 11.1 27.75 11.45 27.8 11.6 27.65" fill="url(#gradient5)" fill-rule="evenodd" stroke="none"/>
    <path d="M10.9 27.7 L10.85 27.6 10.8 27.45 Q10.8 27.05 11.75 24.6 12.45 22.7 12.9 22.15 L12.95 22.1 13.15 21.95 Q13.35 21.95 13.4 22.1 L13.4 22.15 13.4 22.25 13.4 22.4 13.25 22.8 13.2 22.95 13.1 23.3 13.05 23.4 13.05 23.45 12.6 24.6 12.4 25.0 11.95 26.7 11.6 27.65 11.45 27.8 11.1 27.75 10.9 27.7 M16.0 24.85 L15.8 24.1 Q15.8 23.75 16.1 23.85 L16.5 24.3 16.8 25.3 17.2 27.15 17.2 27.45 16.95 27.6 16.9 27.6 Q16.55 27.6 16.3 25.85 L16.0 24.85" fill="#a15c3c" fill-rule="evenodd" stroke="none"/>
    <path d="M16.95 27.6 L16.95 27.75 16.2 27.95 16.0 27.4 15.1 25.6 15.3 25.7 16.0 24.85 16.3 25.85 Q16.55 27.6 16.9 27.6 L16.95 27.6" fill="url(#gradient6)" fill-rule="evenodd" stroke="none"/>
  </g>
  <defs>
    <linearGradient gradientTransform="matrix(-8.0E-4, 0.0014, -0.0019, -0.0011, 13.9, 2.5)" gradientUnits="userSpaceOnUse" id="gradient0" spreadMethod="pad" x1="-819.2" x2="819.2">
      <stop offset="0.0" stop-color="#8a382d"/>
      <stop offset="1.0" stop-color="#7f523f"/>
    </linearGradient>
    <linearGradient gradientTransform="matrix(0.0, -0.0036, 7.0E-4, 0.0, 15.95, 10.85)" gradientUnits="userSpaceOnUse" id="gradient1" spreadMethod="pad" x1="-819.2" x2="819.2">
      <stop offset="0.3058823529411765" stop-color="#56241e"/>
      <stop offset="1.0" stop-color="#5e352d"/>
    </linearGradient>
    <linearGradient gradientTransform="matrix(7.0E-4, -0.003, 0.002, 5.0E-4, 10.05, 11.7)" gradientUnits="userSpaceOnUse" id="gradient2" spreadMethod="pad" x1="-819.2" x2="819.2">
      <stop offset="0.3058823529411765" stop-color="#58241e"/>
      <stop offset="1.0" stop-color="#6b352d"/>
    </linearGradient>
    <linearGradient gradientTransform="matrix(0.0043, 0.0025, -9.0E-4, 0.0016, 11.45, 18.1)" gradientUnits="userSpaceOnUse" id="gradient3" spreadMethod="pad" x1="-819.2" x2="819.2">
      <stop offset="0.0" stop-color="#37120f"/>
      <stop offset="1.0" stop-color="#65372d"/>
    </linearGradient>
    <linearGradient gradientTransform="matrix(-0.0019, 0.0019, -9.0E-4, -9.0E-4, 9.0, 10.25)" gradientUnits="userSpaceOnUse" id="gradient4" spreadMethod="pad" x1="-819.2" x2="819.2">
      <stop offset="0.0" stop-color="#753d30"/>
      <stop offset="1.0" stop-color="#8c5946"/>
    </linearGradient>
    <linearGradient gradientTransform="matrix(-0.0018, 0.0033, -0.0016, -9.0E-4, 11.5, 24.8)" gradientUnits="userSpaceOnUse" id="gradient5" spreadMethod="pad" x1="-819.2" x2="819.2">
      <stop offset="0.0" stop-color="#723f27"/>
      <stop offset="1.0" stop-color="#52261e"/>
    </linearGradient>
    <linearGradient gradientTransform="matrix(5.0E-4, 0.0021, -8.0E-4, 2.0E-4, 16.0, 26.25)" gradientUnits="userSpaceOnUse" id="gradient6" spreadMethod="pad" x1="-819.2" x2="819.2">
      <stop offset="0.0" stop-color="#703f27"/>
      <stop offset="1.0" stop-color="#46261e"/>
    </linearGradient>
  </defs>
</svg>
