<?xml version="1.0" encoding="UTF-8" standalone="no"?>
<svg xmlns:ffdec="https://www.free-decompiler.com/flash" xmlns:xlink="http://www.w3.org/1999/xlink" ffdec:objectType="shape" height="35.75px" width="18.6px" xmlns="http://www.w3.org/2000/svg">
  <g transform="matrix(1.0, 0.0, 0.0, 1.0, 0.0, 0.0)">
    <path d="M14.0 10.4 L14.0 10.45 13.95 10.4 14.0 10.4 M11.25 15.45 L11.2 15.4 11.25 15.35 11.25 15.45 M11.85 22.45 L11.9 22.6 11.8 22.55 11.85 22.45 M11.55 21.45 L11.55 21.5 11.4 21.4 11.55 21.45 M3.5 31.95 L3.55 31.95 3.5 32.0 3.5 31.95" fill="#333333" fill-rule="evenodd" stroke="none"/>
    <path d="M10.35 5.55 L10.4 5.55 10.4 6.0 10.35 6.3 10.4 6.55 10.4 6.8 10.45 6.8 10.45 7.0 10.35 6.95 9.15 6.75 8.95 6.65 8.95 6.7 8.9 6.65 8.55 6.35 8.3 5.7 8.25 5.4 8.15 5.15 8.15 4.9 8.1 4.4 8.0 4.15 8.6 4.45 8.85 4.6 8.9 4.6 8.85 4.7 9.45 5.2 10.35 5.55" fill="#3e3e49" fill-rule="evenodd" stroke="none"/>
    <path d="M13.9 10.9 Q13.1 14.35 12.65 14.35 L12.35 14.15 12.3 13.95 12.45 12.5 12.5 11.65 Q12.5 10.25 12.75 9.95 13.3 9.15 13.9 10.9 M11.45 15.8 Q11.45 15.45 11.9 15.45 L14.1 16.75 16.0 18.05 15.85 18.3 15.5 18.45 Q14.7 18.45 13.0 17.15 L11.45 15.8 M13.15 29.65 L13.3 30.5 13.0 32.35 Q12.6 33.9 12.3 33.9 L12.05 33.75 12.0 33.6 12.55 29.45 Q12.55 29.1 12.75 29.2 L13.15 29.65 M6.15 29.4 L6.4 30.1 Q4.75 33.7 4.15 33.7 3.9 33.7 3.9 33.35 L5.15 30.95 5.65 29.65 Q5.85 29.0 6.15 29.4" fill="#474848" fill-rule="evenodd" stroke="none"/>
    <path d="M12.25 14.25 Q12.25 14.25 12.25 14.2 12.2 14.1 12.2 14.1 12.2 14.05 12.2 14.0 12.2 14.0 12.2 13.85 12.2 13.85 12.2 13.7 12.2 13.6 12.2 13.4 12.2 13.3 12.2 13.05 12.2 13.0 12.2 12.95 12.2 12.9 12.2 12.9 12.2 12.85 12.2 12.8 12.2 12.8 12.2 12.75 12.2 12.7 12.2 12.65 12.2 12.65 12.2 12.6 12.2 12.55 12.2 12.55 12.2 12.45 12.2 12.45 12.2 12.4 12.2 12.25 12.2 12.1 12.2 11.85 12.2 11.45 12.2 10.75 12.2 10.65 12.2 10.45 12.2 10.45 12.2 10.4 12.2 10.35 12.2 10.35 12.25 10.3 12.25 10.25 12.3 10.2 12.3 10.15 12.3 10.15 12.3 10.1 12.3 10.1 12.3 10.1 12.35 10.05 12.35 10.05 12.35 10.05 12.35 10.0 12.35 10.0 12.4 9.95 12.4 9.95 12.4 9.9 12.4 9.9 12.45 9.8 12.5 9.8 12.55 9.75 12.6 9.7 12.6 9.7 12.6 9.7 12.65 9.65 12.65 9.65 12.65 9.65 12.65 9.65 12.65 9.65 12.65 9.65 12.65 9.65 12.65 9.65 13.0 9.65 13.05 9.65 13.25 9.65 13.25 9.65 13.3 9.65 13.35 9.65 13.35 9.65 13.4 9.65 13.4 9.7 13.4 9.7 13.45 9.7 13.45 9.7 13.45 9.7 13.45 9.7 13.5 9.7 13.5 9.7 13.55 9.7 13.6 9.75 13.6 9.75 13.6 9.75 13.6 9.75 13.6 9.75 13.6 9.8 13.65 9.8 13.7 9.85 13.7 9.85 13.7 9.9 13.7 9.9 13.75 9.95 13.75 10.0 13.8 10.05 13.85 10.1 13.85 10.1 13.85 10.15 13.9 10.15 13.9 10.2 13.9 10.2 13.9 10.25 14.0 10.5 14.0 10.55 14.0 10.55 14.05 10.6 14.05 10.6 14.05 10.65 14.05 10.7 14.05 10.7 14.05 10.75 14.05 10.75 14.1 10.8 14.05 10.85 14.1 10.9 14.1 10.9 14.1 10.95 14.1 10.95 14.1 11.1 14.1 11.25 14.1 11.3 14.05 11.3 14.05 11.3 14.0 11.4 14.05 11.4 14.05 11.35 14.05 11.4 14.05 11.45 14.0 11.5 13.95 11.5 13.95 11.55 14.0 11.55 13.95 11.7 13.95 11.75 13.9 11.85 13.85 11.95 13.85 12.0 13.8 12.1 13.8 12.1 13.85 12.05 13.8 12.15 13.8 12.15 13.8 12.2 13.75 12.25 13.75 12.25 13.75 12.3 13.75 12.3 13.75 12.3 13.75 12.35 13.75 12.35 13.7 12.35 13.7 12.4 13.7 12.4 13.7 12.45 13.7 12.45 13.7 12.5 13.65 12.5 13.6 12.55 13.6 12.55 13.6 12.6 13.6 12.65 13.55 12.65 13.55 12.7 13.55 12.7 13.55 12.7 13.55 12.7 13.55 12.7 13.55 12.75 13.55 12.7 13.55 12.7 13.55 12.75 13.55 12.75 13.55 12.8 13.5 12.8 13.5 12.8 13.5 12.85 13.5 12.85 13.45 13.05 13.45 13.05 13.4 13.1 13.4 13.15 13.4 13.2 13.4 13.2 13.4 13.25 13.4 13.3 13.4 13.25 13.4 13.3 13.4 13.35 13.4 13.35 13.35 13.45 13.35 13.45 13.35 13.45 13.35 13.45 13.35 13.5 13.35 13.5 13.35 13.5 13.35 13.5 13.35 13.5 13.35 13.5 13.3 13.55 13.3 13.6 13.35 13.6 13.3 13.7 13.3 13.7 13.3 13.7 13.25 13.75 13.2 13.8 13.2 13.85 13.2 13.9 13.2 13.9 13.2 14.0 13.2 14.0 13.2 14.05 13.15 14.05 13.15 14.1 13.15 14.1 13.15 14.1 13.15 14.15 13.15 14.15 13.15 14.15 13.15 14.15 13.1 14.15 13.1 14.15 13.1 14.2 13.1 14.2 13.1 14.2 13.05 14.25 13.05 14.3 13.05 14.3 13.05 14.3 13.05 14.35 13.05 14.35 13.05 14.35 13.05 14.35 13.0 14.4 13.0 14.4 13.0 14.4 13.0 14.4 13.0 14.4 13.0 14.4 12.95 14.4 12.9 14.4 12.9 14.4 12.9 14.4 12.9 14.4 12.85 14.45 12.85 14.45 12.85 14.4 12.85 14.45 12.8 14.45 12.8 14.45 12.8 14.45 12.75 14.45 12.7 14.45 12.7 14.45 12.65 14.5 12.6 14.5 12.55 14.45 12.55 14.45 12.5 14.45 12.45 14.5 12.35 14.5 12.3 14.45 12.3 14.45 12.25 14.45 12.25 14.45 12.2 14.45 12.2 14.4 12.2 14.4 12.2 14.45 12.2 14.4 12.1 14.45 12.2 14.35 12.2 14.35 12.2 14.35 12.25 14.35 12.25 14.35 12.25 14.3 12.25 14.25 L12.25 14.25" fill="#5b5b67" fill-rule="evenodd" stroke="none"/>
    <path d="M9.7 18.45 L9.45 18.5 Q8.75 18.5 6.85 17.45 L4.95 16.1 Q4.95 15.8 5.25 15.75 L5.35 15.6 5.6 15.5 Q5.9 15.5 6.0 15.7 6.1 15.6 6.25 15.6 L7.8 16.95 9.05 17.45 Q9.95 17.85 9.95 18.1 L9.8 18.35 9.7 18.45" fill="#5a5a5a" fill-rule="evenodd" stroke="none"/>
    <path d="M3.6 12.45 Q4.1 11.5 4.75 10.85 L6.05 9.7 6.5 9.4 6.65 9.5 6.95 11.2 7.05 12.1 7.0 12.65 6.75 13.3 Q6.4 14.25 5.2 14.25 4.9 14.25 4.3 13.6 L3.6 12.45" fill="url(#gradient0)" fill-rule="evenodd" stroke="none"/>
    <path d="M10.75 8.55 L10.85 8.35 11.05 7.95 11.55 8.5 11.95 9.0 11.8 10.05 11.7 12.1 11.4 13.8 11.4 13.15 11.3 10.45 10.95 9.05 10.75 8.55" fill="url(#gradient1)" fill-rule="evenodd" stroke="none"/>
    <path d="M9.3 1.05 L9.55 1.2 Q10.25 2.2 10.4 3.75 L10.4 3.85 10.45 4.0 7.9 3.15 8.25 2.0 9.3 1.05 M7.65 3.05 L7.3 2.95 7.3 2.8 7.3 2.75 7.55 1.95 7.45 2.35 7.5 2.75 7.65 3.05 M7.8 1.6 L7.8 1.5 8.25 1.0 8.4 0.95 7.8 1.6" fill="url(#gradient2)" fill-rule="evenodd" stroke="none"/>
    <path d="M3.6 12.45 L3.5 12.3 2.75 10.75 3.0 10.25 4.6 8.9 4.9 8.7 4.95 8.7 5.95 8.75 6.2 9.05 6.5 9.4 6.05 9.7 4.75 10.85 Q4.1 11.5 3.6 12.45" fill="url(#gradient3)" fill-rule="evenodd" stroke="none"/>
    <path d="M9.7 18.45 L10.25 18.8 9.95 20.35 10.05 20.7 9.35 20.45 Q8.85 20.15 7.1 19.55 L5.95 19.25 5.45 19.05 Q3.7 17.3 3.7 16.45 L3.8 15.15 4.8 15.4 5.2 15.55 5.35 15.6 5.25 15.75 Q4.95 15.8 4.95 16.1 L6.85 17.45 Q8.75 18.5 9.45 18.5 L9.7 18.45" fill="url(#gradient4)" fill-rule="evenodd" stroke="none"/>
    <path d="M7.9 3.15 L7.85 3.15 7.65 3.05 7.5 2.75 7.45 2.35 7.55 1.95 7.8 1.6 8.4 0.95 8.45 0.9 9.4 0.85 9.3 1.05 8.25 2.0 7.9 3.15" fill="#a1a4b7" fill-rule="evenodd" stroke="none"/>
    <path d="M11.35 1.1 L11.95 2.45 11.95 3.35 Q12.1 4.05 12.5 4.4 L12.8 4.95 12.6 5.2 12.5 5.2 11.75 4.95 11.65 5.35 11.25 6.8 11.2 6.95 11.95 7.45 Q12.45 7.45 14.05 8.95 L14.05 9.0 14.2 9.2 14.15 9.5 14.2 9.6 14.45 10.4 14.5 10.45 14.5 10.5 14.55 10.65 14.45 11.0 13.1 14.45 13.05 14.6 Q13.25 15.35 14.55 16.5 L14.95 16.75 15.8 17.35 16.6 17.6 17.05 17.7 Q17.25 17.35 17.75 17.15 18.6 16.85 18.6 17.45 L17.8 19.1 17.0 20.55 17.05 20.65 17.05 20.8 17.0 20.85 17.0 20.95 16.9 21.2 16.55 21.55 16.1 21.9 15.85 21.85 15.5 21.95 14.0 21.35 13.7 20.8 13.65 20.5 13.75 20.0 13.7 19.75 13.45 19.7 13.45 19.8 12.95 20.8 Q12.5 21.55 12.15 21.55 L11.95 21.55 12.2 22.1 12.25 22.15 12.5 23.3 13.1 25.65 13.85 30.2 13.55 32.8 13.5 32.85 Q13.0 33.7 13.0 34.1 L13.05 34.3 13.55 34.3 Q15.45 34.3 15.45 35.0 L15.4 35.35 15.2 35.75 9.9 35.75 10.05 35.35 10.25 34.5 10.3 34.4 10.25 34.4 10.25 34.3 10.4 33.95 10.55 32.5 10.4 30.45 10.35 30.05 10.1 27.8 9.6 26.75 8.9 25.85 7.2 29.55 6.9 30.25 6.85 30.4 6.2 31.8 6.1 31.9 5.05 33.45 4.95 33.5 4.75 33.8 4.7 33.95 6.75 34.25 Q7.15 34.35 7.15 34.8 L7.0 35.2 6.7 35.6 6.55 35.75 1.0 35.75 1.0 35.7 Q1.0 35.4 1.75 34.4 L1.7 34.4 1.85 34.0 3.15 29.4 4.4 24.95 4.5 24.2 4.8 22.35 4.8 22.25 4.8 22.15 4.75 22.1 4.7 21.7 4.4 20.8 4.25 20.4 3.85 19.5 3.4 18.7 Q2.75 18.25 2.65 17.75 L2.1 15.9 1.85 14.85 1.75 14.55 1.25 12.5 0.1 11.15 1.0 10.35 2.4 8.8 2.4 8.75 2.45 8.65 Q2.65 8.1 3.45 7.3 L4.05 6.7 4.5 6.3 5.65 5.7 6.4 5.4 6.45 4.7 Q6.45 3.35 5.6 2.5 L6.15 2.3 6.9 1.45 6.95 1.4 7.3 0.85 Q7.45 0.55 8.4 0.25 L9.45 0.0 9.5 0.0 10.3 0.2 10.4 0.2 11.25 1.0 11.35 1.1 M7.9 3.15 L10.45 4.0 10.4 3.85 10.4 3.75 Q10.25 2.2 9.55 1.2 L9.3 1.05 9.4 0.85 8.45 0.9 8.4 0.95 8.25 1.0 7.8 1.5 7.8 1.6 7.55 1.95 7.3 2.75 7.3 2.8 7.3 2.95 7.65 3.05 7.85 3.15 7.9 3.15 M10.35 5.55 L9.45 5.2 8.85 4.7 8.9 4.6 8.85 4.6 8.6 4.45 8.0 4.15 8.1 4.4 8.15 4.9 8.15 5.15 8.25 5.4 8.3 5.7 8.55 6.35 8.9 6.65 8.95 6.7 8.95 6.65 9.15 6.75 10.35 6.95 10.45 7.0 10.45 6.8 10.4 6.8 10.4 6.55 10.35 6.3 10.4 6.0 10.4 5.55 10.35 5.55 M10.75 8.55 L10.95 9.05 11.3 10.45 11.4 13.15 11.4 13.8 11.7 12.1 11.8 10.05 11.95 9.0 11.55 8.5 11.05 7.95 10.85 8.35 10.75 8.55 M9.75 9.7 L8.75 9.25 8.65 9.2 8.6 10.8 8.5 14.0 8.7 14.2 9.6 14.6 9.75 14.65 9.85 13.55 9.65 10.55 9.75 9.7 M13.9 10.9 Q13.3 9.15 12.75 9.95 12.5 10.25 12.5 11.65 L12.45 12.5 12.3 13.95 12.35 14.15 12.65 14.35 Q13.1 14.35 13.9 10.9 M14.0 10.4 L13.95 10.4 14.0 10.45 14.0 10.4 M6.5 9.4 L6.2 9.05 5.95 8.75 4.95 8.7 4.9 8.7 4.6 8.9 3.0 10.25 2.75 10.75 3.5 12.3 3.6 12.45 4.3 13.6 Q4.9 14.25 5.2 14.25 6.4 14.25 6.75 13.3 L7.0 12.65 7.05 12.1 6.95 11.2 6.65 9.5 6.5 9.4 M5.35 15.6 L5.2 15.55 4.8 15.4 3.8 15.15 3.7 16.45 Q3.7 17.3 5.45 19.05 L5.95 19.25 7.1 19.55 Q8.85 20.15 9.35 20.45 L10.05 20.7 9.95 20.35 10.25 18.8 9.7 18.45 9.8 18.35 9.95 18.1 Q9.95 17.85 9.05 17.45 L7.8 16.95 6.25 15.6 Q6.1 15.6 6.0 15.7 5.9 15.5 5.6 15.5 L5.35 15.6 M8.3 22.15 L8.15 22.1 8.0 22.05 6.85 21.7 6.7 22.1 6.65 22.15 6.45 22.6 5.6 24.85 4.9 27.25 5.9 27.55 6.3 27.7 6.5 27.75 6.9 27.9 7.0 27.65 7.35 26.7 8.0 24.6 8.45 23.45 8.45 23.4 8.5 23.3 8.6 22.95 8.75 22.65 8.9 22.45 8.8 22.4 8.8 22.25 8.8 22.15 8.8 22.1 Q8.75 21.95 8.55 21.95 L8.35 22.1 8.3 22.15 M11.25 15.45 L11.25 15.35 11.2 15.4 11.25 15.45 M11.45 15.8 L13.0 17.15 Q14.7 18.45 15.5 18.45 L15.85 18.3 16.0 18.05 14.1 16.75 11.9 15.45 Q11.45 15.45 11.45 15.8 M11.55 21.45 L11.4 21.4 11.55 21.5 11.55 21.45 M11.85 22.45 L11.8 22.55 11.9 22.6 11.85 22.45 M12.35 27.6 L12.6 27.45 12.6 27.15 12.2 25.3 11.9 24.3 11.5 23.85 Q11.2 23.75 11.2 24.1 L11.4 24.85 10.7 25.7 10.5 25.6 11.4 27.4 11.6 27.95 12.35 27.75 12.35 27.6 M13.15 29.65 L12.75 29.2 Q12.55 29.1 12.55 29.45 L12.0 33.6 12.05 33.75 12.3 33.9 Q12.6 33.9 13.0 32.35 L13.3 30.5 13.15 29.65 M6.15 29.4 Q5.85 29.0 5.65 29.65 L5.15 30.95 3.9 33.35 Q3.9 33.7 4.15 33.7 4.75 33.7 6.4 30.1 L6.15 29.4 M3.5 31.95 L3.5 32.0 3.55 31.95 3.5 31.95" fill="#090909" fill-rule="evenodd" stroke="none"/>
    <path d="M6.3 27.7 L5.9 27.55 4.9 27.25 5.6 24.85 6.45 22.6 6.65 22.15 6.7 22.1 6.85 21.7 8.0 22.05 8.15 22.1 8.3 22.15 Q7.85 22.7 7.15 24.6 6.2 27.05 6.2 27.45 L6.25 27.6 6.3 27.7 M8.8 22.4 L8.9 22.45 8.75 22.65 8.6 22.95 8.8 22.4 M8.5 23.3 L8.45 23.4 8.45 23.45 8.5 23.3 M8.0 24.6 L7.35 26.7 7.8 25.0 8.0 24.6 M7.0 27.65 L6.9 27.9 6.5 27.75 6.85 27.8 7.0 27.65" fill="url(#gradient5)" fill-rule="evenodd" stroke="none"/>
    <path d="M6.3 27.7 L6.25 27.6 6.2 27.45 Q6.2 27.05 7.15 24.6 7.85 22.7 8.3 22.15 L8.35 22.1 8.55 21.95 Q8.75 21.95 8.8 22.1 L8.8 22.15 8.8 22.25 8.8 22.4 8.6 22.95 8.5 23.3 8.45 23.45 8.0 24.6 7.8 25.0 7.35 26.7 7.0 27.65 6.85 27.8 6.5 27.75 6.3 27.7 M11.4 24.85 L11.2 24.1 Q11.2 23.75 11.5 23.85 L11.9 24.3 12.2 25.3 12.6 27.15 12.6 27.45 12.35 27.6 12.3 27.6 Q11.95 27.6 11.7 25.85 L11.4 24.85" fill="#7c7a79" fill-rule="evenodd" stroke="none"/>
    <path d="M12.35 27.6 L12.35 27.75 11.6 27.95 11.4 27.4 10.5 25.6 10.7 25.7 11.4 24.85 11.7 25.85 Q11.95 27.6 12.3 27.6 L12.35 27.6" fill="url(#gradient6)" fill-rule="evenodd" stroke="none"/>
  </g>
  <defs>
    <linearGradient gradientTransform="matrix(7.0E-4, -0.003, 0.002, 5.0E-4, 5.4, 11.7)" gradientUnits="userSpaceOnUse" id="gradient0" spreadMethod="pad" x1="-819.2" x2="819.2">
      <stop offset="0.3058823529411765" stop-color="#54545e"/>
      <stop offset="1.0" stop-color="#5f5f70"/>
    </linearGradient>
    <linearGradient gradientTransform="matrix(0.0, -0.0036, 7.0E-4, 0.0, 11.3, 10.9)" gradientUnits="userSpaceOnUse" id="gradient1" spreadMethod="pad" x1="-819.2" x2="819.2">
      <stop offset="0.3058823529411765" stop-color="#3c3c3c"/>
      <stop offset="1.0" stop-color="#5a5a5a"/>
    </linearGradient>
    <linearGradient gradientTransform="matrix(-8.0E-4, 0.0014, -0.0019, -0.0011, 9.25, 2.5)" gradientUnits="userSpaceOnUse" id="gradient2" spreadMethod="pad" x1="-819.2" x2="819.2">
      <stop offset="0.0" stop-color="#5f6070"/>
      <stop offset="1.0" stop-color="#76758e"/>
    </linearGradient>
    <linearGradient gradientTransform="matrix(-0.0019, 0.0019, -9.0E-4, -9.0E-4, 4.35, 10.25)" gradientUnits="userSpaceOnUse" id="gradient3" spreadMethod="pad" x1="-819.2" x2="819.2">
      <stop offset="0.0" stop-color="#5d5e6e"/>
      <stop offset="1.0" stop-color="#79798e"/>
    </linearGradient>
    <linearGradient gradientTransform="matrix(0.0043, 0.0025, -9.0E-4, 0.0016, 6.8, 18.1)" gradientUnits="userSpaceOnUse" id="gradient4" spreadMethod="pad" x1="-819.2" x2="819.2">
      <stop offset="0.0" stop-color="#31302d"/>
      <stop offset="1.0" stop-color="#47484a"/>
    </linearGradient>
    <linearGradient gradientTransform="matrix(-0.0018, 0.0033, -0.0016, -9.0E-4, 6.85, 24.8)" gradientUnits="userSpaceOnUse" id="gradient5" spreadMethod="pad" x1="-819.2" x2="819.2">
      <stop offset="0.0" stop-color="#5b5d5a"/>
      <stop offset="1.0" stop-color="#434444"/>
    </linearGradient>
    <linearGradient gradientTransform="matrix(5.0E-4, 0.0021, -8.0E-4, 2.0E-4, 11.35, 26.25)" gradientUnits="userSpaceOnUse" id="gradient6" spreadMethod="pad" x1="-819.2" x2="819.2">
      <stop offset="0.0" stop-color="#5b5d5b"/>
      <stop offset="1.0" stop-color="#414443"/>
    </linearGradient>
  </defs>
</svg>
